<svg width="997" height="300" viewBox="0 0 997 300" fill="none" xmlns="http://www.w3.org/2000/svg">
<mask id="path-1-inside-1_272_2231" fill="white">
<path d="M0 16C0 7.16345 7.16344 0 16 0H981C989.837 0 997 7.16344 997 16V284C997 292.837 989.837 300 981 300H16C7.16343 300 0 292.837 0 284V16Z"/>
</mask>
<path d="M0 16C0 7.16345 7.16344 0 16 0H981C989.837 0 997 7.16344 997 16V284C997 292.837 989.837 300 981 300H16C7.16343 300 0 292.837 0 284V16Z" stroke="url(#paint0_linear_272_2231)" stroke-width="40" mask="url(#path-1-inside-1_272_2231)"/>
<g clip-path="url(#clip0_272_2231)">
<mask id="mask0_272_2231" style="mask-type:luminance" maskUnits="userSpaceOnUse" x="67" y="23" width="864" height="254">
<path d="M931 23H67V277H931V23Z" fill="white"/>
</mask>
<g mask="url(#mask0_272_2231)">
<path d="M440.728 261.76C435.352 261.76 430.488 260.998 426.136 259.474C421.784 257.95 418.04 255.805 414.904 253.039C411.768 250.273 409.368 247.028 407.704 243.303C406.04 239.52 405.208 235.429 405.208 231.026C405.208 226.623 406.072 222.587 407.8 218.919C409.592 215.193 412.12 211.948 415.384 209.182C418.648 206.416 422.488 204.271 426.904 202.747C431.384 201.223 436.248 200.461 441.496 200.461C445.208 200.461 448.696 200.885 451.96 201.731C455.288 202.578 458.296 203.735 460.984 205.203C463.672 206.67 465.944 208.363 467.8 210.283L457.912 219.511C456.312 218.157 454.648 217.028 452.92 216.125C451.256 215.221 449.464 214.516 447.544 214.008C445.624 213.443 443.576 213.161 441.4 213.161C438.584 213.161 435.992 213.612 433.624 214.516C431.32 215.419 429.272 216.689 427.48 218.326C425.752 219.907 424.408 221.797 423.448 223.999C422.488 226.143 422.008 228.486 422.008 231.026C422.008 233.566 422.52 235.937 423.544 238.138C424.568 240.339 425.976 242.259 427.768 243.895C429.56 245.476 431.672 246.746 434.104 247.705C436.6 248.609 439.256 249.06 442.072 249.06C444.056 249.06 445.912 248.778 447.64 248.213C449.432 247.648 450.968 246.886 452.248 245.927C453.528 244.968 454.552 243.838 455.32 242.54C456.088 241.186 456.472 239.747 456.472 238.223V236.021L458.584 238.9H440.056V227.639H471.64C471.768 228.26 471.864 229.106 471.928 230.179C471.992 231.252 472.024 232.296 472.024 233.312C472.088 234.328 472.12 235.09 472.12 235.598C472.12 239.436 471.32 242.964 469.72 246.181C468.184 249.342 466.008 252.08 463.192 254.394C460.376 256.708 457.048 258.515 453.208 259.813C449.368 261.11 445.208 261.76 440.728 261.76ZM507.278 261.76C501.646 261.76 496.75 260.772 492.59 258.797C488.429 256.765 485.198 254.027 482.894 250.584C480.59 247.085 479.438 243.105 479.438 238.646C479.438 235.202 480.077 232.042 481.358 229.163C482.638 226.285 484.43 223.801 486.734 221.713C489.038 219.568 491.758 217.93 494.894 216.802C498.094 215.617 501.581 215.024 505.358 215.024C508.942 215.024 512.206 215.589 515.15 216.717C518.158 217.846 520.75 219.427 522.926 221.459C525.101 223.491 526.766 225.889 527.918 228.655C529.07 231.421 529.582 234.44 529.454 237.715L529.358 241.355H488.75L486.542 233.735H516.878L515.246 235.344V233.651C515.117 232.239 514.606 230.998 513.71 229.925C512.878 228.797 511.757 227.921 510.35 227.301C508.942 226.68 507.341 226.369 505.55 226.369C503.054 226.369 500.909 226.82 499.118 227.724C497.39 228.571 496.078 229.841 495.182 231.534C494.285 233.17 493.838 235.202 493.838 237.63C493.838 240.113 494.414 242.287 495.566 244.149C496.781 245.955 498.509 247.367 500.75 248.383C503.054 249.399 505.774 249.907 508.91 249.907C511.085 249.907 513.005 249.625 514.67 249.06C516.398 248.495 518.254 247.536 520.238 246.181L527.438 255.156C525.454 256.68 523.342 257.922 521.102 258.881C518.861 259.84 516.557 260.547 514.19 260.998C511.886 261.506 509.582 261.76 507.278 261.76ZM539.239 260.913V215.955H553.831L554.311 225.099L551.239 226.115C551.944 224.083 553.192 222.248 554.983 220.612C556.84 218.919 559.048 217.564 561.607 216.548C564.168 215.532 566.856 215.024 569.671 215.024C573.511 215.024 576.744 215.729 579.367 217.141C581.992 218.495 583.975 220.555 585.319 223.321C586.663 226.031 587.335 229.36 587.335 233.312V260.913H571.879V234.413C571.879 232.607 571.591 231.111 571.015 229.925C570.439 228.74 569.544 227.865 568.327 227.301C567.175 226.68 565.735 226.397 564.007 226.454C562.663 226.454 561.415 226.651 560.263 227.047C559.111 227.385 558.12 227.921 557.287 228.655C556.456 229.333 555.784 230.122 555.271 231.026C554.824 231.929 554.599 232.916 554.599 233.989V260.913H547.015C545.224 260.913 543.688 260.913 542.407 260.913C541.128 260.913 540.072 260.913 539.239 260.913ZM624.465 261.76C618.833 261.76 613.937 260.772 609.777 258.797C605.618 256.765 602.385 254.027 600.081 250.584C597.777 247.085 596.625 243.105 596.625 238.646C596.625 235.202 597.266 232.042 598.545 229.163C599.825 226.285 601.617 223.801 603.921 221.713C606.225 219.568 608.945 217.93 612.081 216.802C615.281 215.617 618.77 215.024 622.545 215.024C626.129 215.024 629.393 215.589 632.337 216.717C635.345 217.846 637.937 219.427 640.113 221.459C642.29 223.491 643.953 225.889 645.105 228.655C646.257 231.421 646.769 234.44 646.641 237.715L646.545 241.355H605.937L603.729 233.735H634.065L632.433 235.344V233.651C632.306 232.239 631.793 230.998 630.897 229.925C630.065 228.797 628.946 227.921 627.537 227.301C626.129 226.68 624.53 226.369 622.737 226.369C620.241 226.369 618.098 226.82 616.305 227.724C614.577 228.571 613.265 229.841 612.369 231.534C611.474 233.17 611.025 235.202 611.025 237.63C611.025 240.113 611.601 242.287 612.753 244.149C613.97 245.955 615.698 247.367 617.937 248.383C620.241 249.399 622.961 249.907 626.097 249.907C628.274 249.907 630.194 249.625 631.857 249.06C633.585 248.495 635.441 247.536 637.425 246.181L644.625 255.156C642.641 256.68 640.529 257.922 638.289 258.881C636.05 259.84 633.746 260.547 631.377 260.998C629.073 261.506 626.769 261.76 624.465 261.76ZM656.428 260.913V215.955H671.02L671.692 230.603L668.812 227.809C669.58 225.381 670.828 223.209 672.556 221.289C674.347 219.37 676.427 217.846 678.796 216.717C681.163 215.589 683.692 215.024 686.38 215.024C687.532 215.024 688.588 215.109 689.548 215.278C690.571 215.447 691.499 215.644 692.332 215.871L688.108 230.857C687.403 230.461 686.443 230.151 685.228 229.925C684.076 229.643 682.859 229.502 681.58 229.502C680.171 229.502 678.859 229.728 677.644 230.179C676.427 230.575 675.403 231.167 674.572 231.957C673.739 232.747 673.067 233.678 672.556 234.751C672.107 235.824 671.884 237.037 671.884 238.392V260.913H656.428ZM716.774 261.675C712.487 261.675 708.647 260.687 705.254 258.712C701.927 256.68 699.27 253.914 697.286 250.415C695.303 246.859 694.31 242.851 694.31 238.392C694.31 233.82 695.303 229.784 697.286 226.285C699.27 222.785 701.99 220.047 705.446 218.072C708.902 216.04 712.838 215.024 717.254 215.024C719.687 215.024 721.895 215.335 723.878 215.955C725.927 216.576 727.718 217.451 729.254 218.58C730.79 219.653 732.102 220.923 733.19 222.39C734.279 223.801 735.078 225.325 735.59 226.962L732.422 226.623V215.955H747.686V260.913H732.134V250.076L735.59 249.991C735.078 251.572 734.246 253.067 733.094 254.479C731.942 255.89 730.535 257.131 728.87 258.204C727.206 259.277 725.351 260.123 723.302 260.744C721.254 261.364 719.078 261.675 716.774 261.675ZM720.998 250.245C723.366 250.245 725.414 249.765 727.142 248.806C728.87 247.847 730.214 246.492 731.174 244.742C732.134 242.936 732.614 240.819 732.614 238.392C732.614 235.964 732.134 233.877 731.174 232.127C730.214 230.321 728.87 228.937 727.142 227.978C725.414 226.962 723.366 226.454 720.998 226.454C718.694 226.454 716.678 226.962 714.95 227.978C713.286 228.937 711.974 230.321 711.014 232.127C710.054 233.877 709.574 235.964 709.574 238.392C709.574 240.819 710.054 242.936 711.014 244.742C711.974 246.492 713.286 247.847 714.95 248.806C716.678 249.765 718.694 250.245 720.998 250.245ZM765.463 260.913V204.61H780.823V260.913H765.463ZM756.439 227.809V215.955H790.711V227.809H756.439ZM823.021 261.76C817.709 261.76 812.973 260.744 808.813 258.712C804.717 256.68 801.453 253.914 799.021 250.415C796.653 246.915 795.469 242.907 795.469 238.392C795.469 233.877 796.653 229.868 799.021 226.369C801.453 222.87 804.717 220.104 808.813 218.072C812.973 216.04 817.709 215.024 823.021 215.024C828.333 215.024 833.037 216.04 837.133 218.072C841.293 220.104 844.557 222.87 846.925 226.369C849.293 229.868 850.477 233.877 850.477 238.392C850.477 242.907 849.293 246.915 846.925 250.415C844.557 253.914 841.293 256.68 837.133 258.712C833.037 260.744 828.333 261.76 823.021 261.76ZM823.021 250.076C825.325 250.076 827.373 249.568 829.165 248.552C830.957 247.536 832.365 246.153 833.389 244.403C834.413 242.653 834.893 240.65 834.829 238.392C834.893 236.134 834.413 234.131 833.389 232.381C832.365 230.575 830.957 229.163 829.165 228.147C827.373 227.131 825.325 226.623 823.021 226.623C820.717 226.623 818.637 227.131 816.781 228.147C814.989 229.163 813.581 230.575 812.557 232.381C811.533 234.131 811.053 236.134 811.117 238.392C811.053 240.65 811.533 242.653 812.557 244.403C813.581 246.153 814.989 247.536 816.781 248.552C818.637 249.568 820.717 250.076 823.021 250.076ZM860.521 260.913V215.955H875.113L875.785 230.603L872.905 227.809C873.673 225.381 874.921 223.209 876.649 221.289C878.441 219.37 880.521 217.846 882.889 216.717C885.257 215.589 887.785 215.024 890.473 215.024C891.625 215.024 892.681 215.109 893.641 215.278C894.665 215.447 895.593 215.644 896.425 215.871L892.201 230.857C891.497 230.461 890.537 230.151 889.321 229.925C888.169 229.643 886.953 229.502 885.673 229.502C884.265 229.502 882.953 229.728 881.737 230.179C880.521 230.575 879.497 231.167 878.665 231.957C877.833 232.747 877.161 233.678 876.649 234.751C876.201 235.824 875.977 237.037 875.977 238.392V260.913H860.521Z" fill="#0891B2"/>
<path d="M164.44 203.763C151.8 203.763 140.12 201.928 129.4 198.26C118.84 194.45 109.64 189.158 101.8 182.385C93.96 175.47 87.8801 167.357 83.5601 158.043C79.4001 148.588 77.3201 138.217 77.3201 126.928C77.3201 115.922 79.56 105.762 84.0401 96.4482C88.5201 87.1349 94.68 79.0916 102.52 72.3182C110.52 65.4038 119.88 60.0416 130.6 56.2316C141.48 52.4216 153.32 50.5166 166.12 50.5166C174.12 50.5166 181.96 51.4338 189.64 53.2682C197.32 55.1027 204.44 57.8544 211 61.5232C217.72 65.051 223.48 69.2844 228.28 74.2232L203.32 99.4116C199.96 96.3071 196.36 93.626 192.52 91.3682C188.84 88.9694 184.76 87.1349 180.28 85.8649C175.8 84.5949 171 83.9599 165.88 83.9599C159.48 83.9599 153.4 85.0182 147.64 87.1349C142.04 89.1104 137.08 92.0032 132.76 95.8132C128.6 99.4821 125.32 103.998 122.92 109.36C120.52 114.722 119.32 120.72 119.32 127.352C119.32 133.843 120.52 139.77 122.92 145.132C125.32 150.353 128.68 154.868 133 158.678C137.32 162.488 142.52 165.381 148.6 167.357C154.84 169.332 161.72 170.32 169.24 170.32C174.36 170.32 179.24 169.685 183.88 168.415C188.52 167.145 192.76 165.452 196.6 163.335C200.6 161.077 204.12 158.537 207.16 155.715L226.84 183.232C222.84 187.183 217.48 190.71 210.76 193.815C204.2 196.92 196.84 199.388 188.68 201.223C180.68 202.917 172.6 203.763 164.44 203.763ZM252.841 201.647V89.2516H291.241V201.647H252.841ZM272.041 67.0266C264.841 67.0266 259.16 65.5449 255.001 62.5816C251 59.4771 249.001 55.1027 249.001 49.4582C249.001 44.3782 251.081 40.2154 255.241 36.9699C259.4 33.7244 265.001 32.1016 272.041 32.1016C279.241 32.1016 284.84 33.6538 288.841 36.7582C292.841 39.7216 294.841 43.9549 294.841 49.4582C294.841 54.6794 292.76 58.9127 288.601 62.1582C284.6 65.4038 279.08 67.0266 272.041 67.0266ZM327.321 248.213V89.2516H363.801L365.241 114.44L358.041 112.535C359.162 107.878 361.881 103.645 366.201 99.8349C370.521 96.0249 375.962 92.991 382.521 90.7332C389.241 88.3344 396.281 87.1349 403.641 87.1349C414.521 87.1349 424.202 89.6749 432.681 94.7549C441.161 99.6938 447.801 106.538 452.601 115.287C457.562 123.895 460.041 133.913 460.041 145.343C460.041 156.632 457.562 166.651 452.601 175.4C447.801 184.148 441.081 191.063 432.441 196.143C423.962 201.082 414.201 203.552 403.161 203.552C395.961 203.552 389.081 202.352 382.521 199.953C375.962 197.555 370.442 194.308 365.961 190.217C361.481 186.125 358.521 181.68 357.081 176.882L365.961 173.918V248.213H327.321ZM393.801 174.977C399.561 174.977 404.601 173.777 408.921 171.378C413.241 168.838 416.601 165.381 419.001 161.007C421.401 156.632 422.601 151.411 422.601 145.343C422.601 139.417 421.401 134.266 419.001 129.892C416.601 125.376 413.241 121.918 408.921 119.52C404.762 116.98 399.722 115.71 393.801 115.71C387.881 115.71 382.761 116.91 378.441 119.308C374.121 121.707 370.761 125.165 368.361 129.68C365.961 134.195 364.761 139.417 364.761 145.343C364.761 151.411 365.961 156.632 368.361 161.007C370.761 165.381 374.121 168.838 378.441 171.378C382.761 173.777 387.881 174.977 393.801 174.977ZM539.045 201.647C530.405 201.647 522.245 200.306 514.565 197.625C507.045 194.803 500.484 190.993 494.885 186.195C489.285 181.256 484.805 175.541 481.445 169.05C478.245 162.558 476.645 155.573 476.645 148.095C476.645 142.873 477.285 137.865 478.565 133.067C479.844 128.128 481.605 123.188 483.845 118.25C486.245 113.17 489.045 108.02 492.245 102.798C495.605 97.436 499.284 91.7916 503.285 85.8649L526.805 51.1516H564.485L565.445 53.2682L532.805 98.5649C528.645 104.492 525.045 110.065 522.005 115.287C518.964 120.367 516.245 125.447 513.845 130.527C511.445 135.607 509.045 140.968 506.645 146.613L498.965 132.008C500.565 127.07 503.124 122.553 506.645 118.462C510.165 114.228 514.245 110.63 518.885 107.667C523.685 104.562 528.645 102.234 533.765 100.682C538.884 98.9882 543.924 98.1416 548.885 98.1416C558.324 98.1416 566.964 100.399 574.805 104.915C582.804 109.29 589.205 115.145 594.005 122.483C598.805 129.821 601.205 137.865 601.205 146.613C601.205 157.055 598.485 166.44 593.045 174.765C587.765 183.09 580.404 189.652 570.965 194.45C561.684 199.248 551.045 201.647 539.045 201.647ZM539.525 172.013C544.644 172.013 549.125 171.025 552.965 169.05C556.965 167.075 560.085 164.323 562.325 160.795C564.564 157.126 565.685 152.963 565.685 148.307C565.685 144.355 564.485 140.687 562.085 137.3C559.845 133.772 556.725 130.95 552.725 128.833C548.885 126.575 544.565 125.447 539.765 125.447C534.645 125.447 530.004 126.505 525.845 128.622C521.844 130.597 518.724 133.348 516.485 136.877C514.245 140.263 513.125 144.073 513.125 148.307C513.125 152.822 514.245 156.915 516.485 160.583C518.724 164.111 521.844 166.933 525.845 169.05C529.845 171.025 534.405 172.013 539.525 172.013ZM679.229 202.282C667.709 202.282 657.229 200.377 647.789 196.567C638.509 192.615 631.069 187.323 625.469 180.692C619.869 174.06 617.069 166.58 617.069 158.255C617.069 152.752 617.869 147.813 619.469 143.438C621.069 138.923 623.469 134.972 626.669 131.585C630.029 128.057 634.029 125.093 638.669 122.695C643.469 120.155 648.909 118.108 654.989 116.557L652.109 125.023C647.629 123.471 643.549 121.566 639.869 119.308C636.189 117.05 633.069 114.51 630.509 111.688C627.949 108.725 625.949 105.55 624.509 102.163C623.229 98.7766 622.589 95.2488 622.589 91.5799C622.589 83.6777 625.069 76.6927 630.029 70.6249C635.149 64.5571 641.949 59.8299 650.429 56.4432C659.069 52.9154 668.669 51.1516 679.229 51.1516C689.629 51.1516 699.069 52.9154 707.549 56.4432C716.189 59.8299 723.069 64.5571 728.189 70.6249C733.309 76.6927 735.869 83.6777 735.869 91.5799C735.869 95.2488 735.229 98.7766 733.949 102.163C732.669 105.55 730.749 108.655 728.189 111.477C725.629 114.158 722.509 116.698 718.829 119.097C715.149 121.355 710.909 123.33 706.109 125.023L703.949 117.403C709.389 118.673 714.429 120.508 719.069 122.907C723.709 125.165 727.709 128.057 731.069 131.585C734.429 134.972 736.989 138.923 738.749 143.438C740.669 147.813 741.629 152.752 741.629 158.255C741.629 166.722 738.829 174.271 733.229 180.903C727.629 187.535 720.109 192.757 710.669 196.567C701.229 200.377 690.749 202.282 679.229 202.282ZM679.229 173.918C683.709 173.918 687.709 173.142 691.229 171.59C694.749 170.038 697.549 167.921 699.629 165.24C701.709 162.558 702.749 159.455 702.749 155.927C702.749 152.258 701.709 149.083 699.629 146.402C697.709 143.58 694.909 141.392 691.229 139.84C687.709 138.147 683.709 137.3 679.229 137.3C674.749 137.3 670.749 138.147 667.229 139.84C663.709 141.392 660.909 143.58 658.829 146.402C656.749 149.083 655.709 152.258 655.709 155.927C655.709 159.313 656.749 162.347 658.829 165.028C660.909 167.71 663.709 169.897 667.229 171.59C670.749 173.142 674.749 173.918 679.229 173.918ZM679.229 108.725C683.069 108.725 686.509 108.09 689.549 106.82C692.749 105.409 695.229 103.574 696.989 101.317C698.749 98.9177 699.629 96.166 699.629 93.0616C699.629 89.9571 698.749 87.2054 696.989 84.8066C695.229 82.4077 692.749 80.5027 689.549 79.0916C686.509 77.6804 683.069 76.9749 679.229 76.9749C675.229 76.9749 671.629 77.6804 668.429 79.0916C665.389 80.5027 662.989 82.4077 661.229 84.8066C659.469 87.2054 658.589 89.9571 658.589 93.0616C658.589 96.166 659.469 98.9177 661.229 101.317C662.989 103.574 665.389 105.409 668.429 106.82C671.629 108.09 675.229 108.725 679.229 108.725Z" fill="#FF9345"/>
</g>
</g>
<defs>
<linearGradient id="paint0_linear_272_2231" x1="-5.72235e-07" y1="15.6651" x2="972.349" y2="333.023" gradientUnits="userSpaceOnUse">
<stop stop-color="#FF0000"/>
<stop offset="0.281564" stop-color="#FFD400"/>
<stop offset="0.642592" stop-color="#00FF00"/>
<stop offset="1" stop-color="#006AFF"/>
</linearGradient>
<clipPath id="clip0_272_2231">
<rect width="864" height="254" fill="white" transform="translate(67 23)"/>
</clipPath>
</defs>
</svg>
